<svg width="29" height="29" viewBox="0 0 29 29" fill="none" xmlns="http://www.w3.org/2000/svg">
<path fill-rule="evenodd" clip-rule="evenodd" d="M5.71677 10.7659C5.71677 6.17278 9.34578 2.5 13.7606 2.5C18.1755 2.5 21.8045 6.17278 21.8045 10.7659C21.8045 15.359 18.1755 19.0318 13.7606 19.0318C9.34578 19.0318 5.71677 15.359 5.71677 10.7659ZM13.7606 0C7.90976 0 3.21677 4.84804 3.21677 10.7659C3.21677 14.847 5.44863 18.4192 8.75297 20.2436C4.92241 21.6232 1.78402 24.4516 0 28.0675H2.85616C5.17825 24.3181 9.33081 21.8202 14.0676 21.8202C18.8044 21.8202 22.957 24.3181 25.2791 28.0675H28.1352C26.2923 24.3322 23.0039 21.4371 19.0003 20.1116C22.1767 18.2504 24.3045 14.7507 24.3045 10.7659C24.3045 4.84804 19.6115 0 13.7606 0Z" fill="white"/>
</svg>
