<svg width="29" height="28" viewBox="0 0 29 28" fill="none" xmlns="http://www.w3.org/2000/svg">
<path fill-rule="evenodd" clip-rule="evenodd" d="M20.1745 10.9679C20.1745 15.5672 16.2966 19.4358 11.3372 19.4358C6.37787 19.4358 2.5 15.5672 2.5 10.9679C2.5 6.36861 6.37787 2.5 11.3372 2.5C16.2966 2.5 20.1745 6.36861 20.1745 10.9679ZM17.9436 19.8822C16.0835 21.1747 13.8022 21.9358 11.3372 21.9358C5.07585 21.9358 0 17.0253 0 10.9679C0 4.91049 5.07585 0 11.3372 0C17.5986 0 22.6745 4.91049 22.6745 10.9679C22.6745 13.754 21.6006 16.2975 19.8315 18.2321L27.6907 25.8352C28.1869 26.3153 28.1869 27.0935 27.6907 27.5735C27.1945 28.0535 26.3901 28.0535 25.8939 27.5735L17.9436 19.8822Z" fill="white"/>
</svg>
