<svg width="41" height="34" viewBox="0 0 41 34" fill="none" xmlns="http://www.w3.org/2000/svg">
<path d="M2.94111 7.70066L12.4229 1.21589L20.8951 5.89934L22.3876 13.4199L23.7484 7.70066L34.4154 0V5.89934L38.4979 9.18676L41 13.9603L40.166 16.9775H32.0889L34.4154 19.8146H39.3758L38.4979 23.1921H29.4989L35.1178 24.8583L37.3565 28.1007L36.4347 31.2079L38.8929 34H18.3929L8.82334 26.3894V19.2742H6.89186L6.23341 25.2185L0 19.2742L2.94111 7.70066Z" fill="#EFA96B"/>
<path d="M2.94111 7.70066L12.4229 1.21589L20.8951 5.89934L22.3876 13.4199L23.7484 7.70066L34.4154 0V5.89934L38.4979 9.18676L41 13.9603L40.166 16.9775H32.0889L34.4154 19.8146H39.3758L38.4979 23.1921H29.4989L35.1178 24.8583L37.3565 28.1007L36.4347 31.2079L38.8929 34H18.3929L8.82334 26.3894V19.2742H6.89186L6.23341 25.2185L0 19.2742L2.94111 7.70066Z" fill="#EFA96B"/>
</svg>
