<svg width="28" height="24" viewBox="0 0 28 24" fill="none" xmlns="http://www.w3.org/2000/svg">
<path fill-rule="evenodd" clip-rule="evenodd" d="M0 1.5C0 0.671573 0.671573 0 1.5 0H26.1301C26.9585 0 27.6301 0.671573 27.6301 1.5C27.6301 2.32843 26.9585 3 26.1301 3H1.5C0.671573 3 0 2.32843 0 1.5ZM0 11.9281C0 11.0997 0.671573 10.4281 1.5 10.4281H26.1301C26.9585 10.4281 27.6301 11.0997 27.6301 11.9281C27.6301 12.7565 26.9585 13.4281 26.1301 13.4281H1.5C0.671573 13.4281 0 12.7565 0 11.9281ZM1.5 20.8564C0.671573 20.8564 0 21.5279 0 22.3564C0 23.1848 0.671573 23.8564 1.5 23.8564H26.1301C26.9585 23.8564 27.6301 23.1848 27.6301 22.3564C27.6301 21.5279 26.9585 20.8564 26.1301 20.8564H1.5Z" fill="white"/>
</svg>
