<svg width="31" height="28" viewBox="0 0 31 28" fill="none" xmlns="http://www.w3.org/2000/svg">
<path fill-rule="evenodd" clip-rule="evenodd" d="M5.43303 23.7537L6.21288 22.2608L5.12217 20.9773C3.4613 19.0229 2.5 16.6043 2.5 14C2.5 7.84904 8.00933 2.5 15.2727 2.5C22.5361 2.5 28.0455 7.84904 28.0455 14C28.0455 20.151 22.5361 25.5 15.2727 25.5C13.7516 25.5 12.299 25.2611 10.9552 24.826L10.5797 24.7044H10.1851H4.93638L5.43303 23.7537ZM0.809937 27.2044H3.63047H10.1851C11.7765 27.7197 13.4889 28 15.2727 28C23.7076 28 30.5455 21.732 30.5455 14C30.5455 6.26801 23.7076 0 15.2727 0C6.83783 0 0 6.26801 0 14C0 17.2404 1.20096 20.2236 3.21713 22.5962L2.11585 24.7044L0.809937 27.2044ZM7.58379 15.75C8.55029 15.75 9.33379 14.9665 9.33379 14C9.33379 13.0335 8.55029 12.25 7.58379 12.25C6.61729 12.25 5.83379 13.0335 5.83379 14C5.83379 14.9665 6.61729 15.75 7.58379 15.75ZM15.1668 15.75C16.1333 15.75 16.9168 14.9665 16.9168 14C16.9168 13.0335 16.1333 12.25 15.1668 12.25C14.2003 12.25 13.4168 13.0335 13.4168 14C13.4168 14.9665 14.2003 15.75 15.1668 15.75ZM24.5006 14C24.5006 14.9665 23.7171 15.75 22.7506 15.75C21.7841 15.75 21.0006 14.9665 21.0006 14C21.0006 13.0335 21.7841 12.25 22.7506 12.25C23.7171 12.25 24.5006 13.0335 24.5006 14Z" fill="white"/>
<path fill-rule="evenodd" clip-rule="evenodd" d="M5.43303 23.7537L6.21288 22.2608L5.12217 20.9773C3.4613 19.0229 2.5 16.6043 2.5 14C2.5 7.84904 8.00933 2.5 15.2727 2.5C22.5361 2.5 28.0455 7.84904 28.0455 14C28.0455 20.151 22.5361 25.5 15.2727 25.5C13.7516 25.5 12.299 25.2611 10.9552 24.826L10.5797 24.7044H10.1851H4.93638L5.43303 23.7537ZM0.809937 27.2044H3.63047H10.1851C11.7765 27.7197 13.4889 28 15.2727 28C23.7076 28 30.5455 21.732 30.5455 14C30.5455 6.26801 23.7076 0 15.2727 0C6.83783 0 0 6.26801 0 14C0 17.2404 1.20096 20.2236 3.21713 22.5962L2.11585 24.7044L0.809937 27.2044ZM7.58379 15.75C8.55029 15.75 9.33379 14.9665 9.33379 14C9.33379 13.0335 8.55029 12.25 7.58379 12.25C6.61729 12.25 5.83379 13.0335 5.83379 14C5.83379 14.9665 6.61729 15.75 7.58379 15.75ZM15.1668 15.75C16.1333 15.75 16.9168 14.9665 16.9168 14C16.9168 13.0335 16.1333 12.25 15.1668 12.25C14.2003 12.25 13.4168 13.0335 13.4168 14C13.4168 14.9665 14.2003 15.75 15.1668 15.75ZM24.5006 14C24.5006 14.9665 23.7171 15.75 22.7506 15.75C21.7841 15.75 21.0006 14.9665 21.0006 14C21.0006 13.0335 21.7841 12.25 22.7506 12.25C23.7171 12.25 24.5006 13.0335 24.5006 14Z" fill="white"/>
<path fill-rule="evenodd" clip-rule="evenodd" d="M5.43303 23.7537L6.21288 22.2608L5.12217 20.9773C3.4613 19.0229 2.5 16.6043 2.5 14C2.5 7.84904 8.00933 2.5 15.2727 2.5C22.5361 2.5 28.0455 7.84904 28.0455 14C28.0455 20.151 22.5361 25.5 15.2727 25.5C13.7516 25.5 12.299 25.2611 10.9552 24.826L10.5797 24.7044H10.1851H4.93638L5.43303 23.7537ZM0.809937 27.2044H3.63047H10.1851C11.7765 27.7197 13.4889 28 15.2727 28C23.7076 28 30.5455 21.732 30.5455 14C30.5455 6.26801 23.7076 0 15.2727 0C6.83783 0 0 6.26801 0 14C0 17.2404 1.20096 20.2236 3.21713 22.5962L2.11585 24.7044L0.809937 27.2044ZM7.58379 15.75C8.55029 15.75 9.33379 14.9665 9.33379 14C9.33379 13.0335 8.55029 12.25 7.58379 12.25C6.61729 12.25 5.83379 13.0335 5.83379 14C5.83379 14.9665 6.61729 15.75 7.58379 15.75ZM15.1668 15.75C16.1333 15.75 16.9168 14.9665 16.9168 14C16.9168 13.0335 16.1333 12.25 15.1668 12.25C14.2003 12.25 13.4168 13.0335 13.4168 14C13.4168 14.9665 14.2003 15.75 15.1668 15.75ZM24.5006 14C24.5006 14.9665 23.7171 15.75 22.7506 15.75C21.7841 15.75 21.0006 14.9665 21.0006 14C21.0006 13.0335 21.7841 12.25 22.7506 12.25C23.7171 12.25 24.5006 13.0335 24.5006 14Z" fill="white"/>
</svg>
