<svg width="28" height="28" viewBox="0 0 28 28" fill="none" xmlns="http://www.w3.org/2000/svg">
<circle cx="6.75" cy="13.75" r="1.75" fill="white"/>
<circle cx="20.75" cy="13.75" r="1.75" fill="white"/>
<circle cx="13.75" cy="13.75" r="1.75" fill="white"/>
<mask id="path-4-inside-1_531_239" fill="white">
<path fill-rule="evenodd" clip-rule="evenodd" d="M14 28C21.732 28 28 21.732 28 14C28 6.26801 21.732 0 14 0C6.26801 0 0 6.26801 0 14C0 17.5247 1.30255 20.7452 3.45255 23.2063L0.339746 27.25H9.46743C10.889 27.7362 12.4137 28 14 28Z"/>
</mask>
<path d="M3.45255 23.2063L5.43356 24.7313L6.68461 23.1062L5.33532 21.5616L3.45255 23.2063ZM0.339746 27.25L-1.64127 25.725L-4.73971 29.75H0.339746V27.25ZM9.46743 27.25L10.2764 24.8845L9.8831 24.75H9.46743V27.25ZM25.5 14C25.5 20.3513 20.3513 25.5 14 25.5V30.5C23.1127 30.5 30.5 23.1127 30.5 14H25.5ZM14 2.5C20.3513 2.5 25.5 7.64873 25.5 14H30.5C30.5 4.8873 23.1127 -2.5 14 -2.5V2.5ZM2.5 14C2.5 7.64873 7.64873 2.5 14 2.5V-2.5C4.8873 -2.5 -2.5 4.8873 -2.5 14H2.5ZM5.33532 21.5616C3.56802 19.5385 2.5 16.8971 2.5 14H-2.5C-2.5 18.1523 -0.962927 21.9518 1.56978 24.8511L5.33532 21.5616ZM2.32076 28.775L5.43356 24.7313L1.47154 21.6814L-1.64127 25.725L2.32076 28.775ZM9.46743 24.75H0.339746V29.75H9.46743V24.75ZM14 25.5C12.6925 25.5 11.441 25.2828 10.2764 24.8845L8.65845 29.6155C10.337 30.1895 12.1348 30.5 14 30.5V25.5Z" fill="white" mask="url(#path-4-inside-1_531_239)"/>
</svg>
