<svg width="28" height="28" viewBox="0 0 28 28" fill="none" xmlns="http://www.w3.org/2000/svg">
<path fill-rule="evenodd" clip-rule="evenodd" d="M13.6906 0C7.91249 0 3.22839 4.77224 3.22839 10.6591C3.22839 14.8225 5.57125 18.4283 8.98703 20.1828C5.06241 21.5064 1.83014 24.3412 0 28H2.53078C4.88518 24.1721 9.13129 21.6072 14 21.6072C18.8687 21.6072 23.1148 24.1721 25.4692 28H28C26.1104 24.2224 22.7262 21.3231 18.6285 20.0587C21.9166 18.2619 24.1528 14.7266 24.1528 10.6591C24.1528 4.77224 19.4687 0 13.6906 0ZM5.43016 10.6591C5.43016 6.01112 9.12849 2.24319 13.6906 2.24319C18.2527 2.24319 21.9511 6.01112 21.9511 10.6591C21.9511 15.3071 18.2527 19.075 13.6906 19.075C9.12849 19.075 5.43016 15.3071 5.43016 10.6591Z" fill="white"/>
</svg>
