<svg width="29" height="29" viewBox="0 0 29 29" fill="none" xmlns="http://www.w3.org/2000/svg">
<path fill-rule="evenodd" clip-rule="evenodd" d="M20.5842 11.017C20.5842 15.6603 16.7031 19.5341 11.7784 19.5341C6.85377 19.5341 2.97266 15.6603 2.97266 11.017C2.97266 6.37378 6.85377 2.5 11.7784 2.5C16.7031 2.5 20.5842 6.37378 20.5842 11.017ZM18.3682 19.9701C16.5129 21.2691 14.2373 22.0341 11.7784 22.0341C5.53441 22.0341 0.472656 17.1016 0.472656 11.017C0.472656 4.93249 5.53441 0 11.7784 0C18.0224 0 23.0842 4.93249 23.0842 11.017C23.0842 13.8156 22.0134 16.3704 20.2492 18.3137L28.0875 25.9517C28.5819 26.4335 28.5819 27.2146 28.0875 27.6964C27.5931 28.1782 26.7914 28.1782 26.297 27.6964L18.3682 19.9701Z" fill="#212128"/>
</svg>
