<svg width="28" height="28" viewBox="0 0 28 28" fill="none" xmlns="http://www.w3.org/2000/svg">
<path d="M14.0774 26.1504L3.40124 14.5067L3.39571 14.5006L3.39011 14.4947C3.36776 14.4709 3.3455 14.447 3.32332 14.4228C0.558895 11.4081 0.558895 6.47904 3.32332 3.46431C6.0306 0.511895 10.3714 0.511895 13.0787 3.46431L13.0787 3.46432C13.1008 3.4885 13.1228 3.51279 13.1446 3.53721L13.5715 4.01503L14.2086 3.94749L14.2097 3.94737L14.6705 3.89852L14.9881 3.56109C17.6983 0.68182 21.9905 0.703581 24.6767 3.63295C27.4164 6.62077 27.4417 11.4909 24.7478 14.5128L14.0774 26.1504Z" stroke="white" stroke-width="2.5"/>
</svg>
