<svg width="25" height="22" viewBox="0 0 25 22" fill="none" xmlns="http://www.w3.org/2000/svg">
<path fill-rule="evenodd" clip-rule="evenodd" d="M0 1.5C0 0.671573 0.671573 0 1.5 0H22.8997C23.7282 0 24.3997 0.671573 24.3997 1.5C24.3997 2.32843 23.7282 3 22.8997 3H1.5C0.671573 3 0 2.32843 0 1.5ZM0 10.5605C0 9.73205 0.671573 9.06048 1.5 9.06048H22.8997C23.7282 9.06048 24.3997 9.73205 24.3997 10.5605C24.3997 11.3889 23.7282 12.0605 22.8997 12.0605H1.5C0.671573 12.0605 0 11.3889 0 10.5605ZM1.5 18.121C0.671573 18.121 0 18.7925 0 19.621C0 20.4494 0.671573 21.121 1.5 21.121H22.8997C23.7282 21.121 24.3997 20.4494 24.3997 19.621C24.3997 18.7925 23.7282 18.121 22.8997 18.121H1.5Z" fill="white"/>
</svg>
