<svg width="60" height="50" viewBox="0 0 60 50" fill="none" xmlns="http://www.w3.org/2000/svg">
<path d="M4.30407 11.3245L18.1799 1.78808L30.5782 8.6755L32.7623 19.7351L34.7537 11.3245L50.364 0V8.6755L56.3383 13.5099L60 20.5298L58.7794 24.9669H46.9593L50.364 29.1391H57.6231L56.3383 34.106H43.1692L51.3919 36.5563L54.6681 41.3245L53.3191 45.894L56.9165 50H26.9165L12.9122 38.8079V28.3444H10.0857L9.12206 37.0861L0 28.3444L4.30407 11.3245Z" fill="#EFA96B"/>
<path d="M4.30407 11.3245L18.1799 1.78808L30.5782 8.6755L32.7623 19.7351L34.7537 11.3245L50.364 0V8.6755L56.3383 13.5099L60 20.5298L58.7794 24.9669H46.9593L50.364 29.1391H57.6231L56.3383 34.106H43.1692L51.3919 36.5563L54.6681 41.3245L53.3191 45.894L56.9165 50H26.9165L12.9122 38.8079V28.3444H10.0857L9.12206 37.0861L0 28.3444L4.30407 11.3245Z" fill="#EFA96B"/>
</svg>
