<svg width="20" height="20" viewBox="0 0 20 20" fill="none" xmlns="http://www.w3.org/2000/svg">
<mask id="path-1-inside-1_430_429" fill="white">
<path fill-rule="evenodd" clip-rule="evenodd" d="M8.31592 18.7006C8.31592 19.4182 8.89767 20 9.61529 20C10.3329 20 10.9147 19.4183 10.9147 18.7006V10.9147H18.7006C19.4182 10.9147 20 10.3329 20 9.6153C20 8.89767 19.4183 8.31592 18.7006 8.31592H10.9147V1.29938C10.9147 0.581751 10.3329 0 9.61529 0C8.89767 0 8.31592 0.58175 8.31592 1.29938V8.31592H1.29938C0.581751 8.31592 0 8.89767 0 9.6153C0 10.3329 0.58175 10.9147 1.29938 10.9147H8.31592V18.7006Z"/>
</mask>
<path fill-rule="evenodd" clip-rule="evenodd" d="M8.31592 18.7006C8.31592 19.4182 8.89767 20 9.61529 20C10.3329 20 10.9147 19.4183 10.9147 18.7006V10.9147H18.7006C19.4182 10.9147 20 10.3329 20 9.6153C20 8.89767 19.4183 8.31592 18.7006 8.31592H10.9147V1.29938C10.9147 0.581751 10.3329 0 9.61529 0C8.89767 0 8.31592 0.58175 8.31592 1.29938V8.31592H1.29938C0.581751 8.31592 0 8.89767 0 9.6153C0 10.3329 0.58175 10.9147 1.29938 10.9147H8.31592V18.7006Z" fill="white"/>
<path d="M10.9147 10.9147V9.91468H9.91467V10.9147H10.9147ZM10.9147 8.31592H9.91467V9.31592H10.9147V8.31592ZM8.31592 8.31592V9.31592H9.31592V8.31592H8.31592ZM8.31592 10.9147H9.31592V9.91468H8.31592V10.9147ZM9.61529 19C9.44995 19 9.31592 18.866 9.31592 18.7006H7.31592C7.31592 19.9705 8.34538 21 9.61529 21V19ZM9.91467 18.7006C9.91467 18.866 9.78064 19 9.61529 19V21C10.8852 21 11.9147 19.9705 11.9147 18.7006H9.91467ZM9.91467 10.9147V18.7006H11.9147V10.9147H9.91467ZM18.7006 9.91468H10.9147V11.9147H18.7006V9.91468ZM19 9.6153C19 9.78064 18.866 9.91468 18.7006 9.91468V11.9147C19.9705 11.9147 21 10.8852 21 9.6153H19ZM18.7006 9.31592C18.866 9.31592 19 9.44996 19 9.6153H21C21 8.34539 19.9705 7.31592 18.7006 7.31592V9.31592ZM10.9147 9.31592H18.7006V7.31592H10.9147V9.31592ZM9.91467 1.29938V8.31592H11.9147V1.29938H9.91467ZM9.61529 1C9.78064 1 9.91467 1.13404 9.91467 1.29938H11.9147C11.9147 0.0294657 10.8852 -1 9.61529 -1V1ZM9.31592 1.29938C9.31592 1.13404 9.44995 1 9.61529 1V-1C8.34539 -1 7.31592 0.0294636 7.31592 1.29938H9.31592ZM9.31592 8.31592V1.29938H7.31592V8.31592H9.31592ZM1.29938 9.31592H8.31592V7.31592H1.29938V9.31592ZM1 9.6153C1 9.44996 1.13404 9.31592 1.29938 9.31592V7.31592C0.0294657 7.31592 -1 8.34539 -1 9.6153H1ZM1.29938 9.91468C1.13404 9.91468 1 9.78064 1 9.6153H-1C-1 10.8852 0.0294636 11.9147 1.29938 11.9147V9.91468ZM8.31592 9.91468H1.29938V11.9147H8.31592V9.91468ZM9.31592 18.7006V10.9147H7.31592V18.7006H9.31592Z" fill="white" mask="url(#path-1-inside-1_430_429)"/>
</svg>
