<svg width="26" height="29" viewBox="0 0 26 29" fill="none" xmlns="http://www.w3.org/2000/svg">
<path fill-rule="evenodd" clip-rule="evenodd" d="M21.1059 18.7141L22.137 20.5H2.86901L3.9001 18.7141C4.29506 18.03 4.50299 17.254 4.50299 16.4641V9.69808C4.54113 9.5747 4.57024 9.4473 4.58956 9.31664C5.15979 5.46023 8.48791 2.5 12.503 2.5C16.5181 2.5 19.8462 5.46023 20.4164 9.31664C20.4357 9.4473 20.4648 9.5747 20.503 9.69808V16.4641C20.503 17.254 20.7109 18.03 21.1059 18.7141ZM23.003 16.4641C23.003 16.8152 23.0954 17.1601 23.2709 17.4641L24.735 20C25.5048 21.3333 24.5426 23 23.003 23H17.7844C17.747 23.1693 17.7049 23.3361 17.6585 23.5C16.8817 26.2398 14.8651 28.1923 12.4998 28.1923C10.1345 28.1923 8.11791 26.2398 7.34118 23.5C7.2947 23.3361 7.25267 23.1693 7.21526 23H2.00298C0.463382 23 -0.498867 21.3333 0.270933 20L1.73504 17.4641C1.91057 17.1601 2.00298 16.8152 2.00298 16.4641V9.05695C2.00298 9.0255 2.02848 9 2.05993 9C2.08827 9 2.11231 8.97899 2.11645 8.95096C2.86531 3.88645 7.23028 0 12.503 0C17.7757 0 22.1407 3.88645 22.8895 8.95096C22.8937 8.97899 22.9177 9 22.946 9C22.9775 9 23.003 9.0255 23.003 9.05695V16.4641ZM12.4998 25.6923C11.9236 25.6923 11.2282 25.3931 10.5966 24.5671C10.3655 24.2648 10.157 23.906 9.98537 23.5H15.0143C14.8427 23.906 14.6342 24.2648 14.403 24.5671C13.7714 25.3931 13.0761 25.6923 12.4998 25.6923Z" fill="white"/>
</svg>
