<svg width="1920" height="226" viewBox="0 0 1920 226" fill="none" xmlns="http://www.w3.org/2000/svg">
<path d="M0 92.8L29.2267 100C58.24 107.2 116.693 121.6 174.933 114.04C233.173 106.66 291.627 77.14 349.44 72.64C407.467 68.14 465.067 88.66 523.093 97.3C580.907 105.94 639.36 103.06 697.6 106.3C755.84 109.54 814.293 119.26 872.533 114.94C930.773 110.8 989.227 92.8001 1047.47 74.2601C1105.71 55.5401 1164.16 36.46 1222.4 46C1280.64 55.54 1339.09 94.0601 1396.91 112.96C1454.93 131.86 1512.53 131.14 1570.56 106.66C1628.37 82.0001 1686.83 33.4 1745.07 13.24C1803.31 -6.73997 1861.76 1.54007 1890.77 5.86007L1920 10V227.8H1890.77C1861.76 227.8 1803.31 227.8 1745.07 227.8C1686.83 227.8 1628.37 227.8 1570.56 227.8C1512.53 227.8 1454.93 227.8 1396.91 227.8C1339.09 227.8 1280.64 227.8 1222.4 227.8C1164.16 227.8 1105.71 227.8 1047.47 227.8C989.227 227.8 930.773 227.8 872.533 227.8C814.293 227.8 755.84 227.8 697.6 227.8C639.36 227.8 580.907 227.8 523.093 227.8C465.067 227.8 407.467 227.8 349.44 227.8C291.627 227.8 233.173 227.8 174.933 227.8C116.693 227.8 58.24 227.8 29.2267 227.8H0V92.8Z" fill="#EFA96B"/>
</svg>
