<svg width="162" height="137" viewBox="0 0 162 137" fill="none" xmlns="http://www.w3.org/2000/svg">
<path d="M32.1363 21.3031L58.3667 3.36365L81.8041 16.3199L85.933 37.1247L89.6975 21.3031L119.207 0V16.3199L130.5 25.4142L137.422 38.6197L135.115 46.9665H112.771L119.207 54.815H132.929L130.5 64.1585H105.606L121.15 68.7679L127.343 77.7376L124.793 86.3336L131.593 94.0575H74.8822L48.4089 73.0036V53.32H43.0656L41.2441 69.7645L24 53.32L32.1363 21.3031Z" fill="#EFA96B"/>
<path d="M32.1363 21.3031L58.3667 3.36365L81.8041 16.3199L85.933 37.1247L89.6975 21.3031L119.207 0V16.3199L130.5 25.4142L137.422 38.6197L135.115 46.9665H112.771L119.207 54.815H132.929L130.5 64.1585H105.606L121.15 68.7679L127.343 77.7376L124.793 86.3336L131.593 94.0575H74.8822L48.4089 73.0036V53.32H43.0656L41.2441 69.7645L24 53.32L32.1363 21.3031Z" fill="#EFA96B"/>
<path d="M21.276 122.543C21.876 123.047 22.14 123.695 22.068 124.487C22.02 125.255 21.684 125.855 21.06 126.287C18.492 128.015 15.672 128.687 12.6 128.303C9.528 127.919 6.96 126.575 4.896 124.271C2.832 121.943 1.8 119.231 1.8 116.135C1.8 113.015 2.82 110.291 4.86 107.963C6.9 105.635 9.456 104.267 12.528 103.859C15.6 103.451 18.42 104.111 20.988 105.839C21.516 106.223 21.84 106.739 21.96 107.387C22.08 108.011 21.948 108.599 21.564 109.151C21.204 109.703 20.7 110.039 20.052 110.159C19.428 110.279 18.84 110.159 18.288 109.799C16.704 108.767 14.976 108.383 13.104 108.647C11.232 108.887 9.672 109.715 8.424 111.131C7.2 112.547 6.588 114.203 6.588 116.099C6.612 117.995 7.248 119.651 8.496 121.067C9.744 122.483 11.304 123.311 13.176 123.551C15.048 123.791 16.764 123.383 18.324 122.327C18.78 122.015 19.284 121.883 19.836 121.931C20.388 121.955 20.868 122.159 21.276 122.543ZM34.8933 105.407C36.7893 104.303 38.8533 103.751 41.0853 103.751C43.3173 103.751 45.3813 104.303 47.2773 105.407C49.1733 106.511 50.6613 108.011 51.7413 109.907C52.8453 111.779 53.3973 113.831 53.3973 116.063C53.3973 118.295 52.8453 120.359 51.7413 122.255C50.6613 124.151 49.1733 125.651 47.2773 126.755C45.3813 127.835 43.3173 128.375 41.0853 128.375C38.8533 128.375 36.7893 127.835 34.8933 126.755C33.0213 125.651 31.5333 124.151 30.4293 122.255C29.3253 120.359 28.7733 118.295 28.7733 116.063C28.7733 113.831 29.3253 111.779 30.4293 109.907C31.5333 108.011 33.0213 106.511 34.8933 105.407ZM35.7573 121.391C37.2453 122.855 39.0213 123.587 41.0853 123.587C43.1733 123.587 44.9493 122.855 46.4133 121.391C47.8773 119.927 48.6093 118.163 48.6093 116.099C48.6093 114.011 47.8773 112.235 46.4133 110.771C44.9493 109.283 43.1733 108.539 41.0853 108.539C39.0213 108.539 37.2453 109.283 35.7573 110.771C34.2933 112.235 33.5613 114.011 33.5613 116.099C33.5613 118.163 34.2933 119.927 35.7573 121.391ZM75.2198 123.623C75.8918 123.623 76.4558 123.863 76.9118 124.343C77.3918 124.799 77.6318 125.363 77.6318 126.035C77.6318 126.683 77.3918 127.247 76.9118 127.727C76.4558 128.183 75.8918 128.411 75.2198 128.411H64.2758C63.6038 128.411 63.0278 128.183 62.5478 127.727C62.0918 127.247 61.8638 126.671 61.8638 125.999V106.163C61.8638 105.491 62.0918 104.927 62.5478 104.471C63.0278 103.991 63.5918 103.751 64.2398 103.751C64.9118 103.751 65.4758 103.991 65.9318 104.471C66.4118 104.927 66.6518 105.491 66.6518 106.163V123.623H75.2198ZM103.778 122.543C104.378 123.047 104.642 123.695 104.57 124.487C104.522 125.255 104.186 125.855 103.562 126.287C100.994 128.015 98.1739 128.687 95.1019 128.303C92.0299 127.919 89.4619 126.575 87.3979 124.271C85.3339 121.943 84.3019 119.231 84.3019 116.135C84.3019 113.015 85.3219 110.291 87.3619 107.963C89.4019 105.635 91.9579 104.267 95.0299 103.859C98.1019 103.451 100.922 104.111 103.49 105.839C104.018 106.223 104.342 106.739 104.462 107.387C104.582 108.011 104.45 108.599 104.066 109.151C103.706 109.703 103.202 110.039 102.554 110.159C101.93 110.279 101.342 110.159 100.79 109.799C99.2059 108.767 97.4779 108.383 95.6059 108.647C93.7339 108.887 92.1739 109.715 90.9259 111.131C89.7019 112.547 89.0899 114.203 89.0899 116.099C89.1139 117.995 89.7499 119.651 90.9979 121.067C92.2459 122.483 93.8059 123.311 95.6779 123.551C97.5499 123.791 99.2659 123.383 100.826 122.327C101.282 122.015 101.786 121.883 102.338 121.931C102.89 121.955 103.37 122.159 103.778 122.543ZM117.395 105.407C119.291 104.303 121.355 103.751 123.587 103.751C125.819 103.751 127.883 104.303 129.779 105.407C131.675 106.511 133.163 108.011 134.243 109.907C135.347 111.779 135.899 113.831 135.899 116.063C135.899 118.295 135.347 120.359 134.243 122.255C133.163 124.151 131.675 125.651 129.779 126.755C127.883 127.835 125.819 128.375 123.587 128.375C121.355 128.375 119.291 127.835 117.395 126.755C115.523 125.651 114.035 124.151 112.931 122.255C111.827 120.359 111.275 118.295 111.275 116.063C111.275 113.831 111.827 111.779 112.931 109.907C114.035 108.011 115.523 106.511 117.395 105.407ZM118.259 121.391C119.747 122.855 121.523 123.587 123.587 123.587C125.675 123.587 127.451 122.855 128.915 121.391C130.379 119.927 131.111 118.163 131.111 116.099C131.111 114.011 130.379 112.235 128.915 110.771C127.451 109.283 125.675 108.539 123.587 108.539C121.523 108.539 119.747 109.283 118.259 110.771C116.795 112.235 116.063 114.011 116.063 116.099C116.063 118.163 116.795 119.927 118.259 121.391ZM157.575 103.751C158.247 103.751 158.811 103.991 159.267 104.471C159.747 104.927 159.987 105.491 159.987 106.163C159.987 106.811 159.747 107.375 159.267 107.855C158.811 108.311 158.247 108.539 157.575 108.539H153.147V125.999C153.147 126.671 152.907 127.247 152.427 127.727C151.971 128.183 151.407 128.411 150.735 128.411C150.063 128.411 149.487 128.183 149.007 127.727C148.551 127.247 148.323 126.671 148.323 125.999V108.539H143.895C143.223 108.539 142.647 108.311 142.167 107.855C141.711 107.375 141.483 106.811 141.483 106.163C141.483 105.491 141.711 104.927 142.167 104.471C142.647 103.991 143.223 103.751 143.895 103.751H157.575Z" fill="#272732"/>
</svg>
