<svg width="23" height="23" viewBox="0 0 23 23" fill="none" xmlns="http://www.w3.org/2000/svg">
<path fill-rule="evenodd" clip-rule="evenodd" d="M17.8958 19.1876C16.1622 20.6315 13.9325 21.5 11.5 21.5C9.21831 21.5 7.1151 20.7358 5.43234 19.4495C6.7418 17.3584 9.0763 15.9611 11.75 15.9611C14.3105 15.9611 16.5598 17.2426 17.8958 19.1876ZM18.798 18.3367C17.7093 16.818 16.1388 15.6676 14.3122 15.1039C16.1324 14.1093 17.3703 12.1522 17.3703 9.90057C17.3703 6.64178 14.7773 4 11.5787 4C8.38013 4 5.78715 6.64178 5.78715 9.90057C5.78715 12.2053 7.08409 14.2014 8.97497 15.1726C7.12182 15.7976 5.54753 17.0312 4.49594 18.6374C2.64696 16.8228 1.5 14.2953 1.5 11.5C1.5 5.97715 5.97715 1.5 11.5 1.5C17.0228 1.5 21.5 5.97715 21.5 11.5C21.5 14.1441 20.4738 16.5485 18.798 18.3367ZM23 11.5C23 17.8513 17.8513 23 11.5 23C5.14873 23 0 17.8513 0 11.5C0 5.14873 5.14873 0 11.5 0C17.8513 0 23 5.14873 23 11.5ZM11.5787 5.24177C9.05327 5.24177 7.00598 7.32759 7.00598 9.90057C7.00598 12.4736 9.05327 14.5594 11.5787 14.5594C14.1042 14.5594 16.1515 12.4736 16.1515 9.90057C16.1515 7.32759 14.1042 5.24177 11.5787 5.24177Z" fill="white"/>
</svg>
