<svg width="23" height="23" viewBox="0 0 23 23" fill="none" xmlns="http://www.w3.org/2000/svg">
<mask id="path-1-inside-1_652_79" fill="white">
<path fill-rule="evenodd" clip-rule="evenodd" d="M3.25593 16.4805C9.79234 17.2767 15.7366 12.6234 16.5329 6.08702C16.7619 4.20694 16.5401 2.37584 15.9523 0.702152C15.8005 0.269847 16.2274 -0.159907 16.6299 0.0589713C20.4246 2.12234 23.0002 6.14396 23.0002 10.7672C23.0002 17.4944 17.5468 22.9478 10.8196 22.9478C6.19661 22.9478 2.17517 20.3724 0.111706 16.5781C-0.107077 16.1758 0.32219 15.7487 0.754521 15.8997C1.54936 16.1773 2.38597 16.3745 3.25593 16.4805Z"/>
</mask>
<path d="M16.5329 6.08702L15.0439 5.90563L16.5329 6.08702ZM3.25593 16.4805L3.07455 17.9695H3.07455L3.25593 16.4805ZM0.111706 16.5781L-1.20604 17.2947L0.111706 16.5781ZM0.754521 15.8997L1.24914 14.4836L0.754521 15.8997ZM15.9523 0.702152L14.537 1.1992L15.9523 0.702152ZM16.6299 0.0589713L17.3465 -1.25881L16.6299 0.0589713ZM15.0439 5.90563C14.3478 11.6197 9.15138 15.6876 3.43732 14.9915L3.07455 17.9695C10.4333 18.8659 17.1255 13.6272 18.0219 6.2684L15.0439 5.90563ZM14.537 1.1992C15.0502 2.66025 15.2444 4.25939 15.0439 5.90563L18.0219 6.2684C18.2794 4.15448 18.03 2.09143 17.3675 0.205105L14.537 1.1992ZM15.9134 1.37676C19.2446 3.18812 21.5002 6.71532 21.5002 10.7672H24.5002C24.5002 5.5726 21.6046 1.05656 17.3465 -1.25881L15.9134 1.37676ZM21.5002 10.7672C21.5002 16.6659 16.7183 21.4478 10.8196 21.4478V24.4478C18.3752 24.4478 24.5002 18.3228 24.5002 10.7672H21.5002ZM10.8196 21.4478C6.76794 21.4478 3.2409 19.1924 1.42945 15.8615L-1.20604 17.2947C1.10944 21.5525 5.62528 24.4478 10.8196 24.4478V21.4478ZM3.43732 14.9915C2.67476 14.8986 1.94313 14.726 1.24914 14.4836L0.2599 17.3158C1.15559 17.6287 2.09718 17.8504 3.07455 17.9695L3.43732 14.9915ZM1.42945 15.8615C1.67358 16.3104 1.52745 16.8058 1.26573 17.0757C1.02526 17.3236 0.637654 17.4478 0.2599 17.3158L1.24914 14.4836C0.439057 14.2007 -0.379348 14.4628 -0.88784 14.9871C-1.41758 15.5333 -1.66896 16.4435 -1.20604 17.2947L1.42945 15.8615ZM17.3675 0.205105C17.5002 0.582877 17.3766 0.971212 17.1284 1.21232C16.8582 1.47473 16.3623 1.62089 15.9134 1.37676L17.3465 -1.25881C16.4949 -1.72183 15.5843 -1.47023 15.0381 -0.939581C14.5137 -0.430243 14.2525 0.389122 14.537 1.1992L17.3675 0.205105Z" fill="white" mask="url(#path-1-inside-1_652_79)"/>
</svg>
