<svg width="22" height="16" viewBox="0 0 22 16" fill="none" xmlns="http://www.w3.org/2000/svg">
<path fill-rule="evenodd" clip-rule="evenodd" d="M1.5 1.5V9.5H3V11H1C0.447715 11 0 10.5523 0 10V1C0 0.447715 0.447715 0 1 0H16C16.5523 0 17 0.447715 17 1V3H16.5H15.5V1.5H1.5ZM15 5H6C5.44772 5 5 5.44771 5 6V9V9.5V11V11.5V15C5 15.5523 5.44772 16 6 16H21C21.5523 16 22 15.5523 22 15V6C22 5.44772 21.5523 5 21 5H18H17H16.5H15.5H15ZM20.5 6.5H19.5H17H15.5H6.5V9.5V11V13.5V14.5H20.5V6.5Z" fill="white"/>
</svg>
