<svg width="29" height="29" viewBox="0 0 29 29" fill="none" xmlns="http://www.w3.org/2000/svg">
<path d="M7.51991 8.73658L6.94094 8.25983L7.51991 8.73658ZM4.82572 12.8001L4.54969 13.4974L4.82572 12.8001ZM5.50325 15.3251L4.7567 15.3969L5.50325 15.3251ZM7.70375 20.4089L7.14041 20.904L7.70375 20.4089ZM9.30329 22.8081L10.0006 23.0841L9.30329 22.8081ZM9.73898 24.4245L10.015 23.7271L9.73898 24.4245ZM9.17721 23.1266L9.87457 23.4026L9.17721 23.1266ZM11.5986 25.1605L11.3226 25.8579L11.5986 25.1605ZM14.142 23.4607L14.1693 22.7112L14.142 23.4607ZM15.3251 23.4256L15.2533 22.679L15.3251 23.4256ZM20.4089 21.2251L19.9138 20.6617L20.4089 21.2251ZM22.631 19.8479L22.9071 19.1505L22.631 19.8479ZM23.2794 20.1045L23.0034 20.8019L23.2794 20.1045ZM24.7516 16.3853L24.4755 17.0826L24.7516 16.3853ZM23.4478 15.0412L22.6994 14.9926L23.4478 15.0412ZM24.1032 16.1286L23.8271 16.826L24.1032 16.1286ZM23.4256 13.6037L24.1722 13.5319L23.4256 13.6037ZM21.2251 8.51992L21.7885 8.02481L21.2251 8.51992ZM20.0672 6.48282L19.3698 6.20679L20.0672 6.48282ZM20.3865 7.68453L19.8935 8.24973L20.3865 7.68453ZM19.6955 4.70474L19.4195 5.4021L19.6955 4.70474ZM20.2573 6.00259L20.9546 6.27862L20.2573 6.00259ZM16.538 4.53043L17.2354 4.80646L16.538 4.53043ZM17.8359 3.96866L18.1119 3.2713L17.8359 3.96866ZM16.4121 4.84869L15.7147 4.57266L16.4121 4.84869ZM10.7147 3.28396L8.87927 4.07842L9.47511 5.455L11.3106 4.66054L10.7147 3.28396ZM13.1845 4.58439L13.0159 4.19482L11.6393 4.79066L11.8079 5.18024L13.1845 4.58439ZM13.6756 6.24975C14.1942 6.19983 14.7122 6.19997 15.2232 6.24766L15.3626 4.75415C14.7585 4.69777 14.1457 4.69757 13.5319 4.75665L13.6756 6.24975ZM15.8407 4.25439L15.7147 4.57266L17.1094 5.12472L17.2354 4.80646L15.8407 4.25439ZM19.9715 4.00738L18.1119 3.2713L17.5599 4.66601L19.4195 5.4021L19.9715 4.00738ZM20.7645 6.75885L20.9546 6.27862L19.5599 5.72656L19.3698 6.20679L20.7645 6.75885ZM19.8935 8.24973C20.1647 8.48623 20.4215 8.74162 20.6618 9.01504L21.7885 8.02481C21.5041 7.70122 21.2002 7.39905 20.8795 7.11933L19.8935 8.24973ZM22.5492 7.96836L22.1597 8.13699L22.7555 9.51356L23.1451 9.34494L22.5492 7.96836ZM25.6449 10.7147L24.8504 8.87921L23.4738 9.47506L24.2683 11.3105L25.6449 10.7147ZM24.3444 13.1844L24.734 13.0158L24.1382 11.6392L23.7486 11.8079L24.3444 13.1844ZM22.6791 13.6756C22.7215 14.1163 22.7278 14.5566 22.6994 14.9926L24.1963 15.0899C24.2298 14.5744 24.2224 14.0535 24.1722 13.5319L22.6791 13.6756ZM25.0276 15.6879L24.3792 15.4313L23.8271 16.826L24.4755 17.0826L25.0276 15.6879ZM25.2746 19.8188L26.0107 17.9591L24.616 17.4071L23.8799 19.2667L25.2746 19.8188ZM22.355 20.5452L23.0034 20.8019L23.5554 19.4071L22.9071 19.1505L22.355 20.5452ZM20.83 19.7154C20.5523 20.0526 20.2464 20.3694 19.9138 20.6617L20.904 21.7884C21.2977 21.4425 21.6596 21.0677 21.988 20.6689L20.83 19.7154ZM20.9605 22.5492L20.7918 22.1596L19.4153 22.7555L19.5839 23.145L20.9605 22.5492ZM18.2142 25.6448L20.0496 24.8504L19.4538 23.4738L17.6183 24.2682L18.2142 25.6448ZM15.7444 24.3444L15.913 24.734L17.2896 24.1381L17.121 23.7485L15.7444 24.3444ZM15.2533 22.679C14.8909 22.7139 14.5289 22.7243 14.1693 22.7112L14.1146 24.2102C14.5398 24.2257 14.9682 24.2134 15.397 24.1721L15.2533 22.679ZM13.5938 24.8748L13.784 24.3943L12.3893 23.8423L12.1991 24.3227L13.5938 24.8748ZM9.46295 25.1218L11.3226 25.8579L11.8746 24.4632L10.015 23.7271L9.46295 25.1218ZM8.60593 22.5321L8.47986 22.8506L9.87457 23.4026L10.0006 23.0841L8.60593 22.5321ZM9.39397 20.9744C8.98881 20.6595 8.61103 20.3051 8.2671 19.9137L7.14041 20.904C7.54746 21.3671 7.99439 21.7864 8.47341 22.1587L9.39397 20.9744ZM6.37964 20.9604L6.76921 20.7918L6.17337 19.4152L5.78379 19.5838L6.37964 20.9604ZM3.28401 18.2141L4.07847 20.0496L5.45505 19.4537L4.66059 17.6183L3.28401 18.2141ZM4.58445 15.7443L4.19487 15.913L4.79071 17.2895L5.18029 17.1209L4.58445 15.7443ZM6.2498 15.2532C6.20737 14.8124 6.20111 14.3721 6.22946 13.9361L4.73263 13.8388C4.6991 14.3543 4.70649 14.8753 4.7567 15.3969L6.2498 15.2532ZM4.40719 13.441L4.54969 13.4974L5.10175 12.1027L4.95925 12.0463L4.40719 13.441ZM4.16018 9.31018L3.4241 11.1698L4.81881 11.7219L5.55489 9.86224L4.16018 9.31018ZM6.57394 8.3835L6.43142 8.32708L5.87936 9.7218L6.02188 9.77821L6.57394 8.3835ZM8.09889 9.21332C8.37657 8.8761 8.6825 8.55935 9.01509 8.26704L8.02485 7.14035C7.63124 7.48629 7.26931 7.86105 6.94094 8.25983L8.09889 9.21332ZM7.96841 6.37958L8.13704 6.76916L9.51362 6.17331L9.34499 5.78374L7.96841 6.37958ZM9.01509 8.26704C9.58025 7.77033 9.84359 6.93564 9.51362 6.17331L8.13704 6.76916C8.1781 6.86403 8.16129 7.02044 8.02485 7.14035L9.01509 8.26704ZM6.02188 9.77821C6.79419 10.0839 7.62035 9.79448 8.09889 9.21332L6.94094 8.25983C6.82573 8.39975 6.67013 8.42157 6.57394 8.3835L6.02188 9.77821ZM5.55489 9.86224C5.60571 9.73386 5.75098 9.67098 5.87936 9.7218L6.43142 8.32708C5.53276 7.97137 4.51589 8.41152 4.16018 9.31018L5.55489 9.86224ZM4.95925 12.0463C4.83087 11.9955 4.76799 11.8502 4.81881 11.7219L3.4241 11.1698C3.06839 12.0685 3.50853 13.0853 4.40719 13.441L4.95925 12.0463ZM6.22946 13.9361C6.27832 13.1849 5.87407 12.4084 5.10175 12.1027L4.54969 13.4974C4.64588 13.5355 4.74439 13.6579 4.73263 13.8388L6.22946 13.9361ZM5.18029 17.1209C5.94262 16.7909 6.3219 16.0021 6.2498 15.2532L4.7567 15.3969C4.77411 15.5777 4.67932 15.7033 4.58445 15.7443L5.18029 17.1209ZM4.66059 17.6183C4.60575 17.4916 4.664 17.3444 4.79071 17.2895L4.19487 15.913C3.3079 16.2969 2.90009 17.3272 3.28401 18.2141L4.66059 17.6183ZM5.78379 19.5838C5.65708 19.6387 5.5099 19.5804 5.45505 19.4537L4.07847 20.0496C4.4624 20.9365 5.49266 21.3443 6.37964 20.9604L5.78379 19.5838ZM8.2671 19.9137C7.77039 19.3486 6.9357 19.0852 6.17337 19.4152L6.76921 20.7918C6.86408 20.7507 7.02049 20.7675 7.14041 20.904L8.2671 19.9137ZM10.0006 23.0841C10.314 22.2924 10.0024 21.4474 9.39397 20.9744L8.47341 22.1587C8.62071 22.2732 8.64486 22.4337 8.60593 22.5321L10.0006 23.0841ZM10.015 23.7271C9.88663 23.6763 9.82375 23.531 9.87457 23.4026L8.47986 22.8506C8.12414 23.7492 8.56429 24.7661 9.46295 25.1218L10.015 23.7271ZM12.1991 24.3227C12.1483 24.4511 12.003 24.514 11.8746 24.4632L11.3226 25.8579C12.2212 26.2136 13.2381 25.7735 13.5938 24.8748L12.1991 24.3227ZM14.1693 22.7112C13.435 22.6844 12.6873 23.0893 12.3893 23.8423L13.784 24.3943C13.8212 24.3003 13.9387 24.2038 14.1146 24.2102L14.1693 22.7112ZM17.121 23.7485C16.791 22.9862 16.0022 22.6069 15.2533 22.679L15.397 24.1721C15.5778 24.1547 15.7033 24.2495 15.7444 24.3444L17.121 23.7485ZM17.6183 24.2682C17.4916 24.3231 17.3444 24.2648 17.2896 24.1381L15.913 24.734C16.2969 25.6209 17.3272 26.0287 18.2142 25.6448L17.6183 24.2682ZM19.5839 23.145C19.6387 23.2718 19.5805 23.4189 19.4538 23.4738L20.0496 24.8504C20.9366 24.4664 21.3444 23.4362 20.9605 22.5492L19.5839 23.145ZM19.9138 20.6617C19.3486 21.1584 19.0853 21.9931 19.4153 22.7555L20.7918 22.1596C20.7508 22.0647 20.7676 21.9083 20.904 21.7884L19.9138 20.6617ZM22.9071 19.1505C22.1347 18.8448 21.3086 19.1342 20.83 19.7154L21.988 20.6689C22.1032 20.529 22.2588 20.5071 22.355 20.5452L22.9071 19.1505ZM23.8799 19.2667C23.8291 19.3951 23.6838 19.458 23.5554 19.4071L23.0034 20.8019C23.902 21.1576 24.9189 20.7174 25.2746 19.8188L23.8799 19.2667ZM24.4755 17.0826C24.6039 17.1334 24.6668 17.2787 24.616 17.4071L26.0107 17.9591C26.3664 17.0605 25.9263 16.0436 25.0276 15.6879L24.4755 17.0826ZM22.6994 14.9926C22.6506 15.7438 23.0548 16.5203 23.8271 16.826L24.3792 15.4313C24.283 15.3932 24.1845 15.2708 24.1963 15.0899L22.6994 14.9926ZM23.7486 11.8079C22.9863 12.1378 22.607 12.9266 22.6791 13.6756L24.1722 13.5319C24.1548 13.351 24.2496 13.2255 24.3444 13.1844L23.7486 11.8079ZM24.2683 11.3105C24.3231 11.4372 24.2649 11.5844 24.1382 11.6392L24.734 13.0158C25.621 12.6319 26.0288 11.6016 25.6449 10.7147L24.2683 11.3105ZM23.1451 9.34494C23.2718 9.29009 23.419 9.34835 23.4738 9.47506L24.8504 8.87921C24.4665 7.99224 23.4362 7.58444 22.5492 7.96836L23.1451 9.34494ZM20.6618 9.01504C21.1585 9.5802 21.9932 9.84353 22.7555 9.51356L22.1597 8.13699C22.0648 8.17805 21.9084 8.16124 21.7885 8.02481L20.6618 9.01504ZM19.3698 6.20679C19.0718 6.95971 19.3398 7.76668 19.8935 8.24973L20.8795 7.11933C20.7469 7.00364 20.7273 6.85285 20.7645 6.75885L19.3698 6.20679ZM19.4195 5.4021C19.5479 5.45291 19.6107 5.59818 19.5599 5.72656L20.9546 6.27862C21.3103 5.37996 20.8702 4.36309 19.9715 4.00738L19.4195 5.4021ZM17.2354 4.80646C17.2862 4.67808 17.4315 4.6152 17.5599 4.66601L18.1119 3.2713C17.2133 2.91559 16.1964 3.35573 15.8407 4.25439L17.2354 4.80646ZM15.2232 6.24766C15.9905 6.31927 16.796 5.91641 17.1094 5.12472L15.7147 4.57266C15.6758 4.67099 15.5483 4.77148 15.3626 4.75415L15.2232 6.24766ZM11.8079 5.18024C12.1379 5.94257 12.9267 6.32184 13.6756 6.24975L13.5319 4.75665C13.3511 4.77405 13.2256 4.67926 13.1845 4.58439L11.8079 5.18024ZM8.87927 4.07842C7.99229 4.46234 7.58449 5.49261 7.96841 6.37958L9.34499 5.78374C9.29014 5.65703 9.3484 5.50985 9.47511 5.455L8.87927 4.07842ZM11.3106 4.66054C11.4373 4.60569 11.5844 4.66395 11.6393 4.79066L13.0159 4.19482C12.6319 3.30784 11.6017 2.90004 10.7147 3.28396L11.3106 4.66054Z" fill="white"/>
<circle cx="14.5747" cy="14.3415" r="4.25" transform="rotate(-23.4051 14.5747 14.3415)" stroke="white" stroke-width="1.5"/>
</svg>
