<svg width="26" height="31" viewBox="0 0 26 31" fill="none" xmlns="http://www.w3.org/2000/svg">
<mask id="path-1-outside-1_619_87" maskUnits="userSpaceOnUse" x="6" y="0" width="14" height="31" fill="black">
<rect fill="white" x="6" width="14" height="31"/>
<path fill-rule="evenodd" clip-rule="evenodd" d="M11.833 2C11.5569 2 11.333 2.22386 11.333 2.5V11.7059H9C8.44772 11.7059 8 12.1536 8 12.7058V28.6765C8 28.9526 8.22386 29.1765 8.5 29.1765H17.5C17.7761 29.1765 18 28.9526 18 28.6765V12.7059C18 12.1536 17.5523 11.7059 17 11.7059H14.6663V2.5C14.6663 2.22386 14.4425 2 14.1663 2H11.833Z"/>
</mask>
<path d="M11.333 11.7059V13.2059H12.833V11.7059H11.333ZM14.6663 11.7059H13.1663V13.2059H14.6663V11.7059ZM12.833 2.5C12.833 3.05228 12.3853 3.5 11.833 3.5V0.5C10.7284 0.5 9.83301 1.39543 9.83301 2.5H12.833ZM12.833 11.7059V2.5H9.83301V11.7059H12.833ZM9 13.2059H11.333V10.2059H9V13.2059ZM9.5 12.7058C9.5 12.982 9.27614 13.2059 9 13.2059V10.2059C7.61929 10.2059 6.5 11.3251 6.5 12.7058H9.5ZM9.5 28.6765V12.7058H6.5V28.6765H9.5ZM8.5 27.6765C9.05228 27.6765 9.5 28.1242 9.5 28.6765H6.5C6.5 29.781 7.39543 30.6765 8.5 30.6765V27.6765ZM17.5 27.6765H8.5V30.6765H17.5V27.6765ZM16.5 28.6765C16.5 28.1242 16.9477 27.6765 17.5 27.6765V30.6765C18.6046 30.6765 19.5 29.781 19.5 28.6765H16.5ZM16.5 12.7059V28.6765H19.5V12.7059H16.5ZM17 13.2059C16.7239 13.2059 16.5 12.982 16.5 12.7059H19.5C19.5 11.3251 18.3807 10.2059 17 10.2059V13.2059ZM14.6663 13.2059H17V10.2059H14.6663V13.2059ZM13.1663 2.5V11.7059H16.1663V2.5H13.1663ZM14.1663 3.5C13.6141 3.5 13.1663 3.05229 13.1663 2.5H16.1663C16.1663 1.39543 15.2709 0.5 14.1663 0.5V3.5ZM11.833 3.5H14.1663V0.5H11.833V3.5Z" fill="white" mask="url(#path-1-outside-1_619_87)"/>
</svg>
