<svg width="28" height="28" viewBox="0 0 28 28" fill="none" xmlns="http://www.w3.org/2000/svg">
<path d="M4.68876 6.81912L1.77559 3.90012C1.65568 3.77996 1.45352 3.81189 1.38706 3.96809C1.13787 4.55382 1 5.19831 1 5.875C1 8.56739 3.18261 10.75 5.875 10.75C6.3038 10.75 6.71967 10.6946 7.11585 10.5907C7.20455 10.5674 7.29952 10.5911 7.36429 10.656L17.3402 20.6519C17.4046 20.7165 17.4283 20.8109 17.4054 20.8992C17.304 21.2908 17.25 21.7016 17.25 22.125C17.25 24.8174 19.4326 27 22.125 27C22.7944 27 23.4322 26.8651 24.0128 26.621C24.1695 26.5551 24.2021 26.3527 24.0821 26.2324L21.1572 23.3018C20.5636 22.707 20.5646 21.7436 21.1594 21.15C21.7542 20.5564 22.7176 20.5574 23.3112 21.1521L26.2329 24.0798C26.3532 24.2003 26.5559 24.1678 26.6218 24.0108C26.8654 23.4307 27 22.7936 27 22.125C27 19.4326 24.8174 17.25 22.125 17.25C21.6847 17.25 21.2579 17.3084 20.8522 17.4178C20.7631 17.4419 20.6673 17.4183 20.602 17.353L10.6509 7.38187C10.586 7.31686 10.5625 7.22165 10.5862 7.13289C10.693 6.7316 10.75 6.30995 10.75 5.875C10.75 3.18261 8.56739 1 5.875 1C5.21376 1 4.58326 1.13165 4.0083 1.37017C3.85088 1.43548 3.8177 1.63847 3.9381 1.7591L6.84268 4.66951C7.43627 5.2643 7.43531 6.22768 6.84052 6.82127C6.24573 7.41487 5.28235 7.41391 4.68876 6.81912Z" stroke="white" stroke-width="1.2"/>
</svg>
