<svg width="26" height="26" viewBox="0 0 26 26" fill="none" xmlns="http://www.w3.org/2000/svg">
<mask id="path-1-inside-1_598_92" fill="white">
<path fill-rule="evenodd" clip-rule="evenodd" d="M15.0124 0H18.2876C18.6594 0.896702 19.3542 1.5 20.15 1.5C20.9458 1.5 21.6406 0.896702 22.0124 0H26V4.28763C25.1033 4.65938 24.5 5.3542 24.5 6.15C24.5 6.9458 25.1033 7.64062 26 8.01237V11.2876C25.1033 11.6594 24.5 12.3542 24.5 13.15C24.5 13.9458 25.1033 14.6406 26 15.0124V18.2876C25.1033 18.6594 24.5 19.3542 24.5 20.15C24.5 20.9458 25.1033 21.6406 26 22.0124V26H22.0124C21.6406 25.1033 20.9458 24.5 20.15 24.5C19.3542 24.5 18.6594 25.1033 18.2876 26H15.0124C14.6406 25.1033 13.9458 24.5 13.15 24.5C12.3542 24.5 11.6594 25.1033 11.2876 26H8.01237C7.64062 25.1033 6.9458 24.5 6.15 24.5C5.3542 24.5 4.65938 25.1033 4.28763 26H0V22.0124C0.896702 21.6406 1.5 20.9458 1.5 20.15C1.5 19.3542 0.896702 18.6594 0 18.2876V15.0124C0.896702 14.6406 1.5 13.9458 1.5 13.15C1.5 12.3542 0.896702 11.6594 0 11.2876V8.01237C0.896702 7.64062 1.5 6.9458 1.5 6.15C1.5 5.3542 0.896702 4.65938 0 4.28763V0H4.28763C4.65938 0.896702 5.3542 1.5 6.15 1.5C6.9458 1.5 7.64062 0.896702 8.01237 0H11.2876C11.6594 0.896702 12.3542 1.5 13.15 1.5C13.9458 1.5 14.6406 0.896702 15.0124 0Z"/>
</mask>
<path d="M18.2876 0L19.6733 -0.574445L19.2896 -1.5H18.2876V0ZM15.0124 0V-1.5H14.0104L13.6267 -0.574446L15.0124 0ZM22.0124 0V-1.5H21.0104L20.6267 -0.574445L22.0124 0ZM26 0H27.5V-1.5H26V0ZM26 4.28763L26.5744 5.67328L27.5 5.28957V4.28763H26ZM26 8.01237H27.5V7.01043L26.5744 6.62672L26 8.01237ZM26 11.2876L26.5744 12.6733L27.5 12.2896V11.2876H26ZM26 15.0124H27.5V14.0104L26.5744 13.6267L26 15.0124ZM26 18.2876L26.5744 19.6733L27.5 19.2896V18.2876H26ZM26 22.0124H27.5V21.0104L26.5744 20.6267L26 22.0124ZM26 26V27.5H27.5V26H26ZM22.0124 26L20.6267 26.5744L21.0104 27.5H22.0124V26ZM18.2876 26V27.5H19.2896L19.6733 26.5744L18.2876 26ZM15.0124 26L13.6267 26.5744L14.0104 27.5H15.0124V26ZM11.2876 26V27.5H12.2896L12.6733 26.5744L11.2876 26ZM8.01237 26L6.62672 26.5744L7.01043 27.5H8.01237V26ZM4.28763 26V27.5H5.28957L5.67328 26.5744L4.28763 26ZM0 26H-1.5V27.5H0V26ZM0 22.0124L-0.574445 20.6267L-1.5 21.0104V22.0124H0ZM0 18.2876H-1.5V19.2896L-0.574445 19.6733L0 18.2876ZM0 15.0124L-0.574446 13.6267L-1.5 14.0104V15.0124H0ZM0 11.2876H-1.5V12.2896L-0.574446 12.6733L0 11.2876ZM0 8.01237L-0.574446 6.62672L-1.5 7.01043V8.01237H0ZM0 4.28763H-1.5V5.28957L-0.574446 5.67328L0 4.28763ZM0 0V-1.5H-1.5V0H0ZM4.28763 0L5.67328 -0.574446L5.28957 -1.5H4.28763V0ZM8.01237 0V-1.5H7.01043L6.62672 -0.574446L8.01237 0ZM11.2876 0L12.6733 -0.574446L12.2896 -1.5H11.2876V0ZM18.2876 -1.5H15.0124V1.5H18.2876V-1.5ZM20.15 0C20.1493 0 20.1048 0.00359767 20.0126 -0.0722147C19.9132 -0.154049 19.7812 -0.314233 19.6733 -0.574445L16.902 0.574445C17.4078 1.7945 18.5267 3 20.15 3V0ZM20.6267 -0.574445C20.5188 -0.314233 20.3868 -0.154049 20.2874 -0.0722147C20.1952 0.00359767 20.1507 0 20.15 0V3C21.7733 3 22.8922 1.7945 23.398 0.574445L20.6267 -0.574445ZM26 -1.5H22.0124V1.5H26V-1.5ZM27.5 4.28763V0H24.5V4.28763H27.5ZM26 6.15C26 6.14929 25.9964 6.10482 26.0722 6.01265C26.154 5.91315 26.3142 5.78115 26.5744 5.67328L25.4256 2.90199C24.2055 3.40778 23 4.52673 23 6.15H26ZM26.5744 6.62672C26.3142 6.51885 26.154 6.38685 26.0722 6.28735C25.9964 6.19518 26 6.15071 26 6.15H23C23 7.77327 24.2055 8.89222 25.4256 9.39801L26.5744 6.62672ZM27.5 11.2876V8.01237H24.5V11.2876H27.5ZM26 13.15C26 13.1493 25.9964 13.1048 26.0722 13.0126C26.154 12.9132 26.3142 12.7812 26.5744 12.6733L25.4256 9.90199C24.2055 10.4078 23 11.5267 23 13.15H26ZM26.5744 13.6267C26.3142 13.5188 26.154 13.3868 26.0722 13.2874C25.9964 13.1952 26 13.1507 26 13.15H23C23 14.7733 24.2055 15.8922 25.4256 16.398L26.5744 13.6267ZM27.5 18.2876V15.0124H24.5V18.2876H27.5ZM26 20.15C26 20.1493 25.9964 20.1048 26.0722 20.0126C26.154 19.9132 26.3142 19.7812 26.5744 19.6733L25.4256 16.902C24.2055 17.4078 23 18.5267 23 20.15H26ZM26.5744 20.6267C26.3142 20.5188 26.154 20.3868 26.0722 20.2874C25.9964 20.1952 26 20.1507 26 20.15H23C23 21.7733 24.2055 22.8922 25.4256 23.398L26.5744 20.6267ZM27.5 26V22.0124H24.5V26H27.5ZM22.0124 27.5H26V24.5H22.0124V27.5ZM20.15 26C20.1507 26 20.1952 25.9964 20.2874 26.0722C20.3868 26.154 20.5188 26.3142 20.6267 26.5744L23.398 25.4256C22.8922 24.2055 21.7733 23 20.15 23V26ZM19.6733 26.5744C19.7812 26.3142 19.9132 26.154 20.0126 26.0722C20.1048 25.9964 20.1493 26 20.15 26V23C18.5267 23 17.4078 24.2055 16.902 25.4256L19.6733 26.5744ZM15.0124 27.5H18.2876V24.5H15.0124V27.5ZM13.15 26C13.1507 26 13.1952 25.9964 13.2874 26.0722C13.3868 26.154 13.5188 26.3142 13.6267 26.5744L16.398 25.4256C15.8922 24.2055 14.7733 23 13.15 23V26ZM12.6733 26.5744C12.7812 26.3142 12.9132 26.154 13.0126 26.0722C13.1048 25.9964 13.1493 26 13.15 26V23C11.5267 23 10.4078 24.2055 9.90199 25.4256L12.6733 26.5744ZM8.01237 27.5H11.2876V24.5H8.01237V27.5ZM6.15 26C6.15071 26 6.19518 25.9964 6.28735 26.0722C6.38685 26.154 6.51885 26.3142 6.62672 26.5744L9.39801 25.4256C8.89222 24.2055 7.77327 23 6.15 23V26ZM5.67328 26.5744C5.78115 26.3142 5.91315 26.154 6.01265 26.0722C6.10482 25.9964 6.14929 26 6.15 26V23C4.52673 23 3.40778 24.2055 2.90199 25.4256L5.67328 26.5744ZM0 27.5H4.28763V24.5H0V27.5ZM-1.5 22.0124V26H1.5V22.0124H-1.5ZM-7.15256e-07 20.15C-7.15256e-07 20.1507 0.00359686 20.1952 -0.0722154 20.2874C-0.15405 20.3868 -0.314233 20.5188 -0.574445 20.6267L0.574445 23.398C1.7945 22.8922 3 21.7733 3 20.15H-7.15256e-07ZM-0.574445 19.6733C-0.314233 19.7812 -0.15405 19.9132 -0.0722154 20.0126C0.00359685 20.1048 -7.15256e-07 20.1493 -7.15256e-07 20.15H3C3 18.5267 1.7945 17.4078 0.574445 16.902L-0.574445 19.6733ZM-1.5 15.0124V18.2876H1.5V15.0124H-1.5ZM-3.57628e-07 13.15C-3.57628e-07 13.1507 0.00359711 13.1952 -0.0722151 13.2874C-0.154049 13.3868 -0.314233 13.5188 -0.574446 13.6267L0.574446 16.398C1.79449 15.8922 3 14.7733 3 13.15H-3.57628e-07ZM-0.574446 12.6733C-0.314233 12.7812 -0.154049 12.9132 -0.0722149 13.0126C0.0035974 13.1048 -3.57628e-07 13.1493 -3.57628e-07 13.15H3C3 11.5267 1.79449 10.4078 0.574446 9.90199L-0.574446 12.6733ZM-1.5 8.01237V11.2876H1.5V8.01237H-1.5ZM-1.19209e-07 6.15C-1.19209e-07 6.15071 0.00359752 6.19518 -0.0722147 6.28735C-0.154049 6.38685 -0.314233 6.51885 -0.574446 6.62672L0.574446 9.39801C1.79449 8.89222 3 7.77327 3 6.15H-1.19209e-07ZM-0.574446 5.67328C-0.314233 5.78115 -0.154049 5.91315 -0.0722149 6.01265C0.00359745 6.10482 -1.19209e-07 6.14929 -1.19209e-07 6.15H3C3 4.52673 1.7945 3.40778 0.574446 2.90199L-0.574446 5.67328ZM-1.5 0V4.28763H1.5V0H-1.5ZM4.28763 -1.5H0V1.5H4.28763V-1.5ZM6.15 0C6.14929 0 6.10482 0.0035976 6.01265 -0.0722148C5.91315 -0.154049 5.78115 -0.314233 5.67328 -0.574446L2.90199 0.574446C3.40778 1.79449 4.52673 3 6.15 3V0ZM6.62672 -0.574446C6.51885 -0.314233 6.38685 -0.154049 6.28735 -0.0722146C6.19518 0.00359766 6.15071 0 6.15 0V3C7.77327 3 8.89222 1.79449 9.39801 0.574446L6.62672 -0.574446ZM11.2876 -1.5H8.01237V1.5H11.2876V-1.5ZM13.15 0C13.1493 0 13.1048 0.00359763 13.0126 -0.0722143C12.9132 -0.154048 12.7812 -0.314232 12.6733 -0.574446L9.90199 0.574446C10.4078 1.79449 11.5267 3 13.15 3V0ZM13.6267 -0.574446C13.5188 -0.314233 13.3868 -0.154049 13.2874 -0.0722147C13.1952 0.00359751 13.1507 0 13.15 0V3C14.7733 3 15.8922 1.79449 16.398 0.574446L13.6267 -0.574446Z" fill="white" mask="url(#path-1-inside-1_598_92)"/>
</svg>
